<svg width="100" height="100" viewBox="0 0 100 100" fill="none" xmlns="http://www.w3.org/2000/svg">
<g id="birds">
<path id="Vector" d="M45.575 82.0167L52.6146 79.4021M43.9667 58.2854C43.9667 58.2854 57.4417 55.2687 62.2688 39.1812" stroke="white" stroke-width="0.5" stroke-linecap="round" stroke-linejoin="round"/>
<path id="Vector_2" d="M57.8833 33.2729C57.8833 33.2729 56.1917 9.17708 76.7479 21.4812C76.7479 21.4812 90.0208 22.6896 90.625 26.9125C90.625 26.9125 78.3563 29.5271 75.1396 35.9625C71.9229 42.3979 79.9667 47.225 66.8938 61.1021C66.8938 61.1021 60.6583 68.1396 51.0063 68.1396L49.3958 71.3583L52.6146 79.4021L62.2688 81.0125" stroke="white" stroke-width="0.5" stroke-linecap="round" stroke-linejoin="round"/>
<path id="Vector_3" d="M9.375 67.9375C9.375 67.9375 49.3958 31.1354 62.2687 32.7438C75.1417 34.3521 65.4854 54.0625 53.4167 61.1042C41.3479 68.1458 9.375 67.9375 9.375 67.9375Z" stroke="white" stroke-width="0.5" stroke-linecap="round" stroke-linejoin="round"/>
<path id="Vector_4" d="M51.0062 67.6083C45.4437 67.1729 39.9167 64.9083 39.9167 64.9083" stroke="white" stroke-width="0.5" stroke-linecap="round" stroke-linejoin="round"/>
</g>
</svg>
