<svg width="100" height="100" viewBox="0 0 100 100" fill="none" xmlns="http://www.w3.org/2000/svg">
<g id="stream">
<path id="Vector" d="M70 40.25H87.5C88.0967 40.25 88.6689 40.4872 89.0908 40.9092C89.5128 41.3311 89.75 41.9033 89.75 42.5C89.75 43.0967 89.5128 43.6689 89.0908 44.0908C88.6689 44.5128 88.0967 44.75 87.5 44.75H70C68.6076 44.75 67.2727 45.3035 66.2881 46.2881C65.3035 47.2727 64.75 48.6076 64.75 50V55C64.75 64.2163 61.0892 73.0554 54.5723 79.5723C48.0554 86.0892 39.2163 89.75 30 89.75H27.5C26.9033 89.75 26.3311 89.5128 25.9092 89.0908C25.4872 88.6689 25.25 88.0967 25.25 87.5C25.25 86.9033 25.4872 86.3311 25.9092 85.9092C26.3311 85.4872 26.9033 85.25 27.5 85.25H30C38.0228 85.25 45.7167 82.0626 51.3896 76.3896C57.0626 70.7167 60.25 63.0228 60.25 55V50C60.25 47.4141 61.277 44.934 63.1055 43.1055C64.934 41.277 67.4141 40.25 70 40.25ZM67.5 25.25H87.5C88.0967 25.25 88.6689 25.4872 89.0908 25.9092C89.5128 26.3311 89.75 26.9033 89.75 27.5C89.75 28.0967 89.5128 28.6689 89.0908 29.0908C88.6689 29.5128 88.0967 29.75 87.5 29.75H67.5C62.7924 29.75 58.278 31.6204 54.9492 34.9492C51.6204 38.278 49.75 42.7924 49.75 47.5V52.5C49.75 55.4219 49.1748 58.3152 48.0566 61.0146C46.9385 63.7141 45.2995 66.1673 43.2334 68.2334C41.1673 70.2995 38.7141 71.9385 36.0146 73.0566C33.3152 74.1748 30.4219 74.75 27.5 74.75H12.5C11.9033 74.75 11.3311 74.5128 10.9092 74.0908C10.4872 73.6689 10.25 73.0967 10.25 72.5C10.25 71.9033 10.4872 71.3311 10.9092 70.9092C11.3311 70.4872 11.9033 70.25 12.5 70.25H27.5C32.2076 70.25 36.722 68.3796 40.0508 65.0508C43.3796 61.722 45.25 57.2076 45.25 52.5V47.5C45.25 41.5989 47.5939 35.9393 51.7666 31.7666C55.9393 27.5939 61.5989 25.25 67.5 25.25ZM65 10.25H67.5C68.0967 10.25 68.6689 10.4872 69.0908 10.9092C69.5128 11.3311 69.75 11.9033 69.75 12.5C69.75 13.0967 69.5128 13.6689 69.0908 14.0908C68.6689 14.5128 68.0967 14.75 67.5 14.75H65C56.9772 14.75 49.2833 17.9374 43.6104 23.6104C37.9374 29.2833 34.75 36.9772 34.75 45V50C34.75 52.5859 33.723 55.066 31.8945 56.8945C30.0661 58.723 27.5859 59.75 25 59.75H12.5C11.9033 59.75 11.3311 59.5128 10.9092 59.0908C10.4872 58.6689 10.25 58.0967 10.25 57.5C10.25 56.9033 10.4872 56.3311 10.9092 55.9092C11.3311 55.4872 11.9033 55.25 12.5 55.25H25C26.3924 55.25 27.7273 54.6965 28.7119 53.7119C29.6965 52.7273 30.25 51.3924 30.25 50V45C30.25 35.7837 33.9108 26.9446 40.4277 20.4277C46.9446 13.9108 55.7837 10.25 65 10.25Z" stroke="white" stroke-width="0.5"/>
</g>
</svg>
