<svg width="100" height="100" viewBox="0 0 100 100" fill="none" xmlns="http://www.w3.org/2000/svg">
<g id="logo-fireplace">
<path id="Vector (Stroke)" d="M50.0238 11.6646C50.4046 11.6738 50.7476 11.8989 50.9076 12.2447L64.9417 42.5835L71.7786 28.6089L71.849 28.4868C72.0315 28.2173 72.3369 28.0513 72.6683 28.0484C73.047 28.045 73.3953 28.256 73.5677 28.5933L89.432 59.6324C89.5872 59.9361 89.5769 60.2979 89.4046 60.5923L81.39 74.2827L87.2083 86.9175C87.3507 87.227 87.3257 87.5876 87.1419 87.8745C86.9581 88.1616 86.641 88.3354 86.3001 88.3355H69.5726C69.0205 88.3353 68.5726 87.8876 68.5726 87.3355V81.7808H63.7103C63.2873 81.7807 62.9097 81.5152 62.7679 81.1167L57.7972 67.1392L56.1595 68.8794C55.9173 69.1367 55.557 69.2468 55.2122 69.1695C54.8674 69.0919 54.5887 68.8378 54.4798 68.5015L49.6087 53.4576L44.8353 69.5122C44.7348 69.8499 44.4639 70.1103 44.1224 70.1968C43.781 70.2832 43.4193 70.1831 43.1702 69.9341L40.6839 67.4478L36.3753 80.0708C36.2371 80.4757 35.8568 80.7476 35.429 80.7476H30.5648V86.3003C30.5646 86.8524 30.1169 87.3002 29.5648 87.3003H11.4583C11.1029 87.3003 10.7743 87.1112 10.5951 86.8042C10.4158 86.4974 10.4128 86.1187 10.5872 85.8091L21.7015 66.105L14.1927 51.7574C14.0428 51.4707 14.0412 51.1288 14.1878 50.8404L29.8812 19.9722L29.9544 19.8511C30.1423 19.583 30.4521 19.4211 30.7855 19.4253C31.1663 19.4301 31.5111 19.6509 31.6751 19.9947L38.055 33.3628L49.1136 12.2017C49.29 11.8641 49.643 11.6555 50.0238 11.6646ZM38.9007 36.063C38.7252 36.3988 38.3752 36.607 37.9964 36.6001C37.6176 36.5932 37.2748 36.3727 37.1117 36.0308L30.7445 22.687L16.2044 51.2867L23.7259 65.6597C23.8828 65.9598 23.8766 66.3188 23.7103 66.6138L13.1702 85.3003H28.5648V79.7476C28.565 79.1954 29.0126 78.7476 29.5648 78.7476H34.7142L39.3099 65.2827L39.3587 65.1646C39.4901 64.8976 39.7355 64.7008 40.0296 64.6324C40.3659 64.5542 40.7191 64.6549 40.9632 64.899L43.3968 67.3326L48.6107 49.8003L48.6683 49.649C48.8314 49.3122 49.1737 49.0901 49.557 49.0855C49.9949 49.0803 50.385 49.3612 50.5199 49.7779L55.8617 66.2779L57.4632 64.5767C57.702 64.3231 58.0559 64.2123 58.3968 64.2837C58.7377 64.3553 59.0174 64.5991 59.1341 64.9273L64.4163 79.7808H69.5726C70.1247 79.7808 70.5723 80.2287 70.5726 80.7808V86.3355H84.7386L79.3558 74.647C79.2194 74.3504 79.2368 74.0059 79.4017 73.7242L87.4017 60.0542L72.6956 31.2837L65.8148 45.3521C65.6452 45.6985 65.2913 45.9168 64.9056 45.9126C64.52 45.9084 64.1711 45.6825 64.0091 45.3326L49.9447 14.9283L38.9007 36.063Z" fill="white"/>
</g>
</svg>
