<svg width="100" height="100" viewBox="0 0 100 100" fill="none" xmlns="http://www.w3.org/2000/svg">
<g id="logo-city">
<path id="Vector" d="M93.75 82.8125H89.0625V34.375C89.0625 33.9606 88.8979 33.5632 88.6049 33.2701C88.3118 32.9771 87.9144 32.8125 87.5 32.8125H62.5C62.0856 32.8125 61.6882 32.9771 61.3951 33.2701C61.1021 33.5632 60.9375 33.9606 60.9375 34.375V51.5625H39.0625V15.625C39.0625 15.2106 38.8979 14.8132 38.6049 14.5201C38.3118 14.2271 37.9144 14.0625 37.5 14.0625H12.5C12.0856 14.0625 11.6882 14.2271 11.3951 14.5201C11.1021 14.8132 10.9375 15.2106 10.9375 15.625V82.8125H6.25C5.8356 82.8125 5.43817 82.9771 5.14515 83.2701C4.85212 83.5632 4.6875 83.9606 4.6875 84.375C4.6875 84.7894 4.85212 85.1868 5.14515 85.4799C5.43817 85.7729 5.8356 85.9375 6.25 85.9375H93.75C94.1644 85.9375 94.5618 85.7729 94.8549 85.4799C95.1479 85.1868 95.3125 84.7894 95.3125 84.375C95.3125 83.9606 95.1479 83.5632 94.8549 83.2701C94.5618 82.9771 94.1644 82.8125 93.75 82.8125ZM64.0625 35.9375H85.9375V82.8125H64.0625V35.9375ZM60.9375 54.6875V82.8125H39.0625V54.6875H60.9375ZM14.0625 17.1875H35.9375V82.8125H14.0625V17.1875ZM26.5625 28.125V34.375C26.5625 34.7894 26.3979 35.1868 26.1049 35.4799C25.8118 35.7729 25.4144 35.9375 25 35.9375C24.5856 35.9375 24.1882 35.7729 23.8951 35.4799C23.6021 35.1868 23.4375 34.7894 23.4375 34.375V28.125C23.4375 27.7106 23.6021 27.3132 23.8951 27.0201C24.1882 26.7271 24.5856 26.5625 25 26.5625C25.4144 26.5625 25.8118 26.7271 26.1049 27.0201C26.3979 27.3132 26.5625 27.7106 26.5625 28.125ZM26.5625 46.875V53.125C26.5625 53.5394 26.3979 53.9368 26.1049 54.2299C25.8118 54.5229 25.4144 54.6875 25 54.6875C24.5856 54.6875 24.1882 54.5229 23.8951 54.2299C23.6021 53.9368 23.4375 53.5394 23.4375 53.125V46.875C23.4375 46.4606 23.6021 46.0632 23.8951 45.7701C24.1882 45.4771 24.5856 45.3125 25 45.3125C25.4144 45.3125 25.8118 45.4771 26.1049 45.7701C26.3979 46.0632 26.5625 46.4606 26.5625 46.875ZM26.5625 65.625V71.875C26.5625 72.2894 26.3979 72.6868 26.1049 72.9799C25.8118 73.2729 25.4144 73.4375 25 73.4375C24.5856 73.4375 24.1882 73.2729 23.8951 72.9799C23.6021 72.6868 23.4375 72.2894 23.4375 71.875V65.625C23.4375 65.2106 23.6021 64.8132 23.8951 64.5201C24.1882 64.2271 24.5856 64.0625 25 64.0625C25.4144 64.0625 25.8118 64.2271 26.1049 64.5201C26.3979 64.8132 26.5625 65.2106 26.5625 65.625ZM48.4375 71.875V65.625C48.4375 65.2106 48.6021 64.8132 48.8951 64.5201C49.1882 64.2271 49.5856 64.0625 50 64.0625C50.4144 64.0625 50.8118 64.2271 51.1049 64.5201C51.3979 64.8132 51.5625 65.2106 51.5625 65.625V71.875C51.5625 72.2894 51.3979 72.6868 51.1049 72.9799C50.8118 73.2729 50.4144 73.4375 50 73.4375C49.5856 73.4375 49.1882 73.2729 48.8951 72.9799C48.6021 72.6868 48.4375 72.2894 48.4375 71.875ZM73.4375 71.875V65.625C73.4375 65.2106 73.6021 64.8132 73.8951 64.5201C74.1882 64.2271 74.5856 64.0625 75 64.0625C75.4144 64.0625 75.8118 64.2271 76.1049 64.5201C76.3979 64.8132 76.5625 65.2106 76.5625 65.625V71.875C76.5625 72.2894 76.3979 72.6868 76.1049 72.9799C75.8118 73.2729 75.4144 73.4375 75 73.4375C74.5856 73.4375 74.1882 73.2729 73.8951 72.9799C73.6021 72.6868 73.4375 72.2894 73.4375 71.875ZM73.4375 53.125V46.875C73.4375 46.4606 73.6021 46.0632 73.8951 45.7701C74.1882 45.4771 74.5856 45.3125 75 45.3125C75.4144 45.3125 75.8118 45.4771 76.1049 45.7701C76.3979 46.0632 76.5625 46.4606 76.5625 46.875V53.125C76.5625 53.5394 76.3979 53.9368 76.1049 54.2299C75.8118 54.5229 75.4144 54.6875 75 54.6875C74.5856 54.6875 74.1882 54.5229 73.8951 54.2299C73.6021 53.9368 73.4375 53.5394 73.4375 53.125Z" fill="white"/>
</g>
</svg>
